<svg xmlns="http://www.w3.org/2000/svg">
    <symbol id="first-page" viewBox="0 0 19 18">
        <path fill-rule="evenodd" fill="inherit" d="
            M 17.9619001150131,14.7372997999191
            C 17.9619001150131,14.7372997999191 12.2246002554893,9 12.2246002554893,9
            C 12.2246002554893,9 17.9619001150131,3.26270020008087 17.9619001150131,3.26270020008087
            C 17.9619001150131,3.26270020008087 16.1992002725601,1.49999964237213 16.1992002725601,1.49999964237213
            C 16.1992002725601,1.49999964237213 8.69919943809509,9 8.69919943809509,9
            C 8.69919943809509,9 16.1992002725601,16.5000003576279 16.1992002725601,16.5000003576279
            C 16.1992002725601,16.5000003576279 17.9619001150131,14.7372997999191 17.9619001150131,14.7372997999191
            Z
            M 10.7108994722366,14.7372997999191
            C 10.7108994722366,14.7372997999191 4.97410017251968,9 4.97410017251968,9
            C 4.97410017251968,9 10.7108994722366,3.26270020008087 10.7108994722366,3.26270020008087
            C 10.7108994722366,3.26270020008087 8.94870018959045,1.49999964237213 8.94870018959045,1.49999964237213
            C 8.94870018959045,1.49999964237213 1.44870048761368,9 1.44870048761368,9
            C 1.44870048761368,9 8.94870018959045,16.5000003576279 8.94870018959045,16.5000003576279
            C 8.94870018959045,16.5000003576279 10.7108994722366,14.7372997999191 10.7108994722366,14.7372997999191
            Z
        " />
    </symbol>
    <symbol id="prev-page" viewBox="0 0 12 18">
        <path fill-rule="evenodd" fill="inherit" d="
            M 10.3369002342224,3.26270020008087
            C 10.3369002342224,3.26270020008087 8.57419967651367,1.49999964237213 8.57419967651367,1.49999964237213
            C 8.57419967651367,1.49999964237213 1.07419967651367,9 1.07419967651367,9
            C 1.07419967651367,9 8.57419967651367,16.5000003576279 8.57419967651367,16.5000003576279
            C 8.57419967651367,16.5000003576279 10.3369002342224,14.7372997999191 10.3369002342224,14.7372997999191
            C 10.3369002342224,14.7372997999191 4.61130023002625,9 4.61130023002625,9
            C 4.61130023002625,9 10.3369002342224,3.26270020008087 10.3369002342224,3.26270020008087
            Z
        " />
    </symbol>
    <symbol id="next-page" viewBox="0 0 12 18">
        <path fill-rule="evenodd" fill="inherit" d="
            M 3.42580032348633,1.49999964237213
            C 3.42580032348633,1.49999964237213 1.66309976577759,3.26270020008087 1.66309976577759,3.26270020008087
            C 1.66309976577759,3.26270020008087 7.38869976997375,9 7.38869976997375,9
            C 7.38869976997375,9 1.66309976577759,14.7372997999191 1.66309976577759,14.7372997999191
            C 1.66309976577759,14.7372997999191 3.42580032348633,16.5000003576279 3.42580032348633,16.5000003576279
            C 3.42580032348633,16.5000003576279 10.9258003234863,9 10.9258003234863,9
            C 10.9258003234863,9 3.42580032348633,1.49999964237213 3.42580032348633,1.49999964237213
            Z
        " />
    </symbol>
    <symbol id="last-page" viewBox="0 0 19 18">
        <path fill-rule="evenodd" fill="inherit" d="
            M 1.03809988498688,3.26270020008087
            C 1.03809988498688,3.26270020008087 6.77639973163605,9 6.77639973163605,9
            C 6.77639973163605,9 1.03809988498688,14.7372997999191 1.03809988498688,14.7372997999191
            C 1.03809988498688,14.7372997999191 2.80079972743988,16.5000003576279 2.80079972743988,16.5000003576279
            C 2.80079972743988,16.5000003576279 10.3008005619049,9 10.3008005619049,9
            C 10.3008005619049,9 2.80079972743988,1.49999964237213 2.80079972743988,1.49999964237213
            C 2.80079972743988,1.49999964237213 1.03809988498688,3.26270020008087 1.03809988498688,3.26270020008087
            Z
            M 8.32959944009781,3.26270020008087
            C 8.32959944009781,3.26270020008087 14.0683998465538,9 14.0683998465538,9
            C 14.0683998465538,9 8.32959944009781,14.7372997999191 8.32959944009781,14.7372997999191
            C 8.32959944009781,14.7372997999191 10.0917998552322,16.5000003576279 10.0917998552322,16.5000003576279
            C 10.0917998552322,16.5000003576279 17.591799557209,9 17.591799557209,9
            C 17.591799557209,9 10.0917998552322,1.49999964237213 10.0917998552322,1.49999964237213
            C 10.0917998552322,1.49999964237213 8.32959944009781,3.26270020008087 8.32959944009781,3.26270020008087
            Z
        " />
    </symbol>
</svg>
