<svg xmlns="http://www.w3.org/2000/svg" viewBox="0 0 10 10">
    <g fill="white">
        <polygon points="4,0 2,2 3,3 6,0" />
        <polygon points="0,6 2,8 3,7 0,4" />
        <polygon points="6,10 8,8 7,7 4,10" />
        <polygon points="10,4 8,2 7,3 10,6" />

        <polygon points="5,4 4,5 5,6 6,5" />

        <polygon points="0,0 0,1 1,0" />
        <polygon points="0,10 1,10 0,9" />
        <polygon points="10,10 10,9 9,10" />
        <polygon points="10,0 9,0 10,1" />
    </g>
</svg>
