<svg xmlns="http://www.w3.org/2000/svg">
    <symbol id="app-color-icon" viewBox="0 0 924 924">
        <path fill-rule="evenodd" fill="white" d="
            M 462,922.79997754097
            C 207.507284402847,922.79997754097 1.20002245903015,716.492715597153 1.20002245903015,462
            C 1.20002245903015,207.507284402847 207.507284402847,1.20002245903015 462,1.20002245903015
            C 716.492715597153,1.20002245903015 922.79997754097,207.507284402847 922.79997754097,462
            C 922.79997754097,716.492715597153 716.492715597153,922.79997754097 462,922.79997754097
            Z
        " />
        <path fill-rule="evenodd" fill="inherit" d="
            M 462,922.79997754097
            C 207.507284402847,922.79997754097 1.20002245903015,716.492715597153 1.20002245903015,462
            C 1.20002245903015,207.507284402847 207.507284402847,1.20002245903015 462,1.20002245903015
            C 716.492715597153,1.20002245903015 922.79997754097,207.507284402847 922.79997754097,462
            C 922.79997754097,716.492715597153 716.492715597153,922.79997754097 462,922.79997754097
            Z
            M 462,74.3428480625153
            C 247.902973651886,74.3428480625153 74.3428480625153,247.902973651886 74.3428480625153,462
            C 74.3428480625153,676.097026348114 247.902973651886,849.657151937485 462,849.657151937485
            C 676.097026348114,849.657151937485 849.657151937485,676.097026348114 849.657151937485,462
            C 849.657151937485,247.902973651886 676.097026348114,74.3428480625153 462,74.3428480625153
            Z
            M 715.374258756638,364.476214170456
            C 715.374258756638,364.476214170456 208.625741243362,364.476214170456 208.625741243362,364.476214170456
            C 208.625741243362,364.476214170456 166.39667057991,291.333333492279 166.39667057991,291.333333492279
            C 166.39667057991,291.333333492279 757.60332942009,291.333333492279 757.60332942009,291.333333492279
            C 757.60332942009,291.333333492279 715.374258756638,364.476214170456 715.374258756638,364.476214170456
            Z
            M 504.22901558876,730.190507411957
            C 504.22901558876,730.190507411957 462,803.333333015442 462,803.333333015442
            C 462,803.333333015442 419.77098441124,730.190507411957 419.77098441124,730.190507411957
            C 419.77098441124,730.190507411957 504.22901558876,730.190507411957 504.22901558876,730.190507411957
            Z
            M 335.312898159027,583.904801130295
            C 335.312898159027,583.904801130295 588.687101840973,583.904801130295 588.687101840973,583.904801130295
            C 588.687101840973,583.904801130295 546.458086252213,657.04762673378 546.458086252213,657.04762673378
            C 546.458086252213,657.04762673378 377.541913747787,657.04762673378 377.541913747787,657.04762673378
            C 377.541913747787,657.04762673378 335.312898159027,583.904801130295 335.312898159027,583.904801130295
            Z
            M 630.916172504425,510.761920452118
            C 630.916172504425,510.761920452118 293.083827495575,510.761920452118 293.083827495575,510.761920452118
            C 293.083827495575,510.761920452118 250.854756832123,437.619039773941 250.854756832123,437.619039773941
            C 250.854756832123,437.619039773941 673.145243167877,437.619039773941 673.145243167877,437.619039773941
            C 673.145243167877,437.619039773941 630.916172504425,510.761920452118 630.916172504425,510.761920452118
            Z
        " />
    </symbol>
</svg>
